<svg xmlns="http://www.w3.org/2000/svg" width="18" height="11" viewBox="0 0 18 11" fill="none">
  <path d="M1 9.00049L9.53361 9.00049" stroke="#5E5E5E" stroke-linecap="round"/>
  <path d="M9.53308 8.43206C9.53308 7.97318 9.82155 7.56385 10.2537 7.40951V7.40951C12.202 6.71369 14.3311 6.71369 16.2794 7.40951V7.40951C16.7115 7.56385 17 7.97318 17 8.43206V9.13368C17 9.767 16.4391 10.2535 15.8121 10.1639L15.6031 10.1341C14.0532 9.91266 12.4798 9.91266 10.93 10.1341L10.721 10.1639C10.094 10.2535 9.53308 9.767 9.53308 9.13368V8.43206Z" stroke="#5E5E5E"/>
  <circle cx="2.1334" cy="2.1334" r="2.1334" transform="matrix(-1 0 0 1 15.4005 1)" stroke="#5E5E5E"/>
  <path d="M1 2.6001L11.1337 2.6001" stroke="#5E5E5E" stroke-linecap="round"/>
  <path d="M1 5.80029L10.067 5.80029" stroke="#5E5E5E" stroke-linecap="round"/>
</svg>