<svg xmlns="http://www.w3.org/2000/svg" width="16" height="18" viewBox="0 0 16 18" fill="none">
  <path opacity="0.7" d="M12.448 7.02182L14.101 7.94157L14.4471 8.14154C15.1843 8.56759 15.1843 9.66599 14.4471 10.092L9.75191 12.8053C8.66301 13.4345 7.33699 13.4345 6.24809 12.8053L1.55294 10.092C0.815685 9.66599 0.815687 8.56759 1.55294 8.14154L1.89899 7.94157L3.46038 7.02182M12.8075 11.1169L14.31 11.8948C15.0849 12.296 15.1098 13.4318 14.3533 13.869L9.75191 16.5281C8.66301 17.1573 7.33699 17.1573 6.24809 16.5281L1.71384 13.9078C0.944308 13.4631 0.98671 12.3022 1.78649 11.919L3.46038 11.1169M9.75191 8.84894L14.4471 6.13569C15.1843 5.70964 15.1843 4.61124 14.4471 4.18519L9.75191 1.47194C8.66301 0.842686 7.33699 0.842685 6.24809 1.47194L1.55294 4.18519C0.815687 4.61124 0.815685 5.70964 1.55294 6.13569L6.24809 8.84893C7.33699 9.47819 8.66301 9.47819 9.75191 8.84894Z" stroke="#696969" stroke-width="1.5"/>
</svg>