<svg xmlns="http://www.w3.org/2000/svg" width="18" height="16" viewBox="0 0 18 16" fill="none">
  <g opacity="0.7">
    <path fill-rule="evenodd" clip-rule="evenodd" d="M15.2333 0H9.77363C8.24562 0 7.00691 1.23973 7.00691 2.76902V13.1805C7.00691 14.7098 8.24562 15.9495 9.77363 15.9495H15.2333C16.7613 15.9495 18 14.7098 18 13.1805V2.76902C18 1.23973 16.7613 0 15.2333 0ZM8.42717 7.38405H9.1834C9.43807 7.38405 9.64452 7.59067 9.64452 7.84555V8.14091C9.64452 8.3958 9.43807 8.60242 9.1834 8.60242H8.42717V7.38405ZM15.2333 14.5835C15.9973 14.5835 16.6166 13.9636 16.6166 13.199V2.76902C16.6166 2.00438 15.9973 1.38451 15.2333 1.38451H9.77363C9.00962 1.38451 8.39027 2.00438 8.39027 2.76902V5.98108H9.1465C10.1652 5.98108 10.991 6.80757 10.991 7.82709V8.12246C10.991 9.14198 10.1652 9.96847 9.1465 9.96847H8.39027V13.199C8.39027 13.9636 9.00962 14.5835 9.77363 14.5835H15.2333Z" fill="#696969"/>
    <path fill-rule="evenodd" clip-rule="evenodd" d="M0.00711954 3.15668C-0.103992 1.55294 1.0985 0.159851 2.70006 0.0369202C4.29439 0.1741 5.48226 1.56865 5.36533 3.16591V11.7222C5.3758 12.1662 5.25378 12.6032 5.01487 12.9775L3.29029 15.645C3.16813 15.8642 2.937 16 2.68622 16C2.43545 16 2.20431 15.8642 2.08216 15.645L0.35757 12.9775C0.124083 12.6008 0.00253054 12.1654 0.00711954 11.7222V3.15668ZM3.84364 12.2206C3.93627 12.0711 3.98427 11.8981 3.98197 11.7222L4.00042 3.15668C4.00964 2.21522 3.41018 1.42143 2.70006 1.42143C1.99916 1.42143 1.3997 2.23368 1.3997 3.15668V11.7222C1.39184 11.8963 1.43341 12.0691 1.51959 12.2206L2.68162 14.0666L3.84364 12.2206Z" fill="#696969"/>
    <path d="M2.69084 2.01215C2.30883 2.01215 1.99916 2.32209 1.99916 2.70441V5.89801C1.99916 6.28033 2.30883 6.59027 2.69084 6.59027C3.07284 6.59027 3.38252 6.28033 3.38252 5.89801V2.70441C3.38502 2.52005 3.31296 2.34251 3.18269 2.21214C3.05243 2.08177 2.87504 2.00965 2.69084 2.01215Z" fill="#696969"/>
    <path d="M15.0304 2.89824H11.9409C11.5589 2.89824 11.2492 3.20817 11.2492 3.59049C11.2492 3.97282 11.5589 4.28275 11.9409 4.28275H15.0304C15.4124 4.28275 15.7221 3.97282 15.7221 3.59049C15.7221 3.20817 15.4124 2.89824 15.0304 2.89824Z" fill="#696969"/>
  </g>
</svg>