<svg xmlns="http://www.w3.org/2000/svg" width="16" height="16" viewBox="0 0 16 16" fill="none">
  <g opacity="0.7">
    <path fill-rule="evenodd" clip-rule="evenodd" d="M3.30748 14.6661H12.7608V14.6594C13.5575 14.6733 14.281 14.197 14.5833 13.4598C14.8855 12.7226 14.7046 11.8754 14.1275 11.3261L10.9475 8.14607C10.5935 7.79148 10.3904 7.31368 10.3808 6.81274V3.8794C10.3798 3.27112 10.0935 2.69854 9.60748 2.33274L8.78082 1.71274C8.19622 1.26789 7.40952 1.19419 6.75247 1.52271C6.09542 1.85124 5.68236 2.52481 5.68748 3.2594V6.81274C5.67786 7.31368 5.47479 7.79148 5.12082 8.14607L1.94081 11.3261C1.35865 11.8746 1.1744 12.725 1.47732 13.4653C1.78024 14.2056 2.50777 14.683 3.30748 14.6661ZM13.6275 13.0861C13.4836 13.4378 13.1408 13.6672 12.7608 13.6661H3.30748C2.92745 13.6672 2.58468 13.4378 2.44081 13.0861C2.2923 12.736 2.37443 12.3307 2.64748 12.0661L5.84081 8.88607C6.39353 8.33799 6.70332 7.59112 6.70081 6.81274V3.2594C6.69725 3.01363 6.79148 2.77651 6.96277 2.60022C7.13406 2.42393 7.36837 2.32291 7.61415 2.3194C7.815 2.3203 8.00978 2.38835 8.16748 2.51274L8.99415 3.13274C9.22917 3.309 9.36748 3.58563 9.36748 3.8794V6.81274C9.36849 7.59306 9.6832 8.3402 10.2408 8.88607L13.4208 12.0661C13.6939 12.3307 13.776 12.736 13.6275 13.0861Z" fill="#696969" stroke="#696969"/>
  </g>
</svg>