<svg xmlns="http://www.w3.org/2000/svg" width="16" height="17" viewBox="0 0 16 17" fill="none">
  <g opacity="0.7">
    <path fill-rule="evenodd" clip-rule="evenodd" d="M14.4154 1.61644C14.0261 1.22202 13.5001 1.00049 12.9518 1C12.4768 1.00158 12.0166 1.1691 11.6477 1.47473L5.14811 6.87388L5.04406 6.98016C4.13815 7.89758 3.93719 9.31717 4.55155 10.4591C4.2995 10.3806 4.03811 10.3377 3.77465 10.3316C2.24225 10.3316 1 11.6005 1 13.1658V14.9372C1 15.5242 1.46585 16 2.04049 16H3.77465C4.73788 15.9946 5.62945 15.4793 6.13001 14.6387C6.63058 13.7981 6.66851 12.7524 6.23022 11.8762C6.50746 11.9719 6.79776 12.0221 7.09036 12.025C7.85863 12.0303 8.59646 11.7186 9.13667 11.1606L9.20603 11.0827L14.5264 4.44355C15.198 3.60924 15.1502 2.39314 14.4154 1.61644ZM3.8024 14.9372H2.06824V13.1658C2.06824 12.1875 2.84465 11.3944 3.8024 11.3944C4.76015 11.3944 5.53656 12.1875 5.53656 13.1658C5.53656 14.1441 4.76015 14.9372 3.8024 14.9372ZM8.42913 10.4166L13.7495 3.77043C14.0757 3.35316 14.0428 2.75221 13.6732 2.37466C13.3035 1.99711 12.7152 1.96352 12.3067 2.29665L5.80709 7.73122C5.08111 8.47082 5.07956 9.67153 5.80362 10.4131C6.52767 11.1546 7.70316 11.1562 8.42913 10.4166Z" fill="#696969"/>
    <path d="M8.6511 6.75342L6.57011 8.87907C6.36725 9.08655 6.36725 9.42266 6.57011 9.63014C6.77323 9.83736 7.10228 9.83736 7.3054 9.63014L9.38639 7.50449C9.52557 7.37201 9.58287 7.17249 9.53579 6.98421C9.48872 6.79592 9.34478 6.6489 9.16045 6.60081C8.97612 6.55273 8.7808 6.61125 8.6511 6.75342Z" fill="#696969"/>
    <path fill-rule="evenodd" clip-rule="evenodd" d="M14.4154 1.61644C14.0261 1.22202 13.5001 1.00049 12.9518 1C12.4768 1.00158 12.0166 1.1691 11.6477 1.47473L5.14811 6.87388L5.04406 6.98016C4.13815 7.89758 3.93719 9.31717 4.55155 10.4591C4.2995 10.3806 4.03811 10.3377 3.77465 10.3316C2.24225 10.3316 1 11.6005 1 13.1658V14.9372C1 15.5242 1.46585 16 2.04049 16H3.77465C4.73788 15.9946 5.62945 15.4793 6.13001 14.6387C6.63058 13.7981 6.66851 12.7524 6.23022 11.8762C6.50746 11.9719 6.79776 12.0221 7.09036 12.025C7.85863 12.0303 8.59646 11.7186 9.13667 11.1606L9.20603 11.0827L14.5264 4.44355C15.198 3.60924 15.1502 2.39314 14.4154 1.61644ZM3.8024 14.9372H2.06824V13.1658C2.06824 12.1875 2.84465 11.3944 3.8024 11.3944C4.76015 11.3944 5.53656 12.1875 5.53656 13.1658C5.53656 14.1441 4.76015 14.9372 3.8024 14.9372ZM8.42913 10.4166L13.7495 3.77043C14.0757 3.35316 14.0428 2.75221 13.6732 2.37466C13.3035 1.99711 12.7152 1.96352 12.3067 2.29665L5.80709 7.73122C5.08111 8.47082 5.07956 9.67153 5.80362 10.4131C6.52767 11.1546 7.70316 11.1562 8.42913 10.4166Z" stroke="#696969" stroke-width="0.3"/>
    <path d="M8.6511 6.75342L6.57011 8.87907C6.36725 9.08655 6.36725 9.42266 6.57011 9.63014C6.77323 9.83736 7.10228 9.83736 7.3054 9.63014L9.38639 7.50449C9.52557 7.37201 9.58287 7.17249 9.53579 6.98421C9.48872 6.79592 9.34478 6.6489 9.16045 6.60081C8.97612 6.55273 8.7808 6.61125 8.6511 6.75342Z" stroke="#696969" stroke-width="0.3"/>
  </g>
</svg>