<svg xmlns="http://www.w3.org/2000/svg" width="15" height="14" viewBox="0 0 15 14" fill="none">
  <path fill-rule="evenodd" clip-rule="evenodd" d="M8.17067 0.827492C9.2438 -0.247263 10.9843 -0.247919 12.0583 0.826022L13.1268 1.89452C14.1916 2.9593 14.2026 4.68306 13.1516 5.76143L7.0036 12.0693C6.29808 12.7932 5.33042 13.2013 4.31998 13.2013L3.0655 13.2012C1.78625 13.2012 0.764637 12.1348 0.818438 10.8557L0.874042 9.53378C0.913541 8.59474 1.30382 7.70474 1.96766 7.0399L8.17067 0.827492ZM10.9984 1.88749C10.5103 1.39933 9.71911 1.39963 9.23133 1.88815L8.53574 2.58479L11.3805 5.42952L12.0782 4.71367C12.5559 4.2235 12.5509 3.43997 12.0669 2.95598L10.9984 1.88749ZM3.02832 8.10056L7.47589 3.64625L10.3334 6.5038L5.93022 11.0215C5.5069 11.4558 4.92631 11.7008 4.32005 11.7007L3.06556 11.7007C2.63915 11.7007 2.29861 11.3452 2.31654 10.9188L2.37215 9.59689C2.39585 9.03346 2.63001 8.49947 3.02832 8.10056ZM13.8132 13.1477C14.2273 13.1477 14.5629 12.8118 14.5629 12.3974C14.5629 11.983 14.2273 11.6471 13.8132 11.6471H9.3345C8.92045 11.6471 8.58479 11.983 8.58479 12.3974C8.58479 12.8118 8.92045 13.1477 9.3345 13.1477H13.8132Z" fill="gray"/>
</svg>