<svg xmlns="http://www.w3.org/2000/svg" width="15" height="16" viewBox="0 0 15 16" fill="none">
  <g opacity="0.7">
    <circle cx="2.1" cy="2.1" r="2.1" transform="matrix(-1 0 0 1 9.68823 5.8999)" stroke="#696969" stroke-width="1.5"/>
    <path d="M10.738 3.05625L11.113 2.40673V2.40673L10.738 3.05625ZM10.738 12.9435L11.113 13.593L10.738 12.9435ZM4.43804 12.9435L4.06304 13.593H4.06304L4.43804 12.9435ZM4.43804 3.05625L4.81304 3.70577L4.43804 3.05625ZM1.36803 6.50987L0.839555 7.04205L1.36803 6.50987ZM1.0449 5.50802L0.344059 5.24097L1.0449 5.50802ZM3.07191 12.686L3.18528 13.4274L3.07191 12.686ZM2.16227 12.4228L2.74334 11.9486L2.16227 12.4228ZM6.02953 14.8258L5.86321 15.5571L6.02953 14.8258ZM5.38957 14.1266L4.67468 14.3534L5.38957 14.1266ZM9.78649 14.1267L9.07159 13.8999L9.78649 14.1267ZM13.0143 12.4229L13.5954 12.8971L13.0143 12.4229ZM12.1045 12.6861L11.991 13.4274L12.1045 12.6861ZM14.1318 5.50802L13.4309 5.77508L14.1318 5.50802ZM13.8086 6.50986L13.2802 5.97768L13.8086 6.50986ZM1.0449 10.492L0.34406 10.759L1.0449 10.492ZM12.1044 3.31371L11.991 2.57234L12.1044 3.31371ZM13.0141 3.57688L13.5951 3.10265L13.0141 3.57688ZM3.07202 3.31376L2.95869 4.05515L3.07202 3.31376ZM13.8086 9.49014L13.2802 10.0223L13.8086 9.49014ZM14.1318 10.492L13.4309 10.2249L14.1318 10.492ZM9.14651 1.17405L8.98026 1.90539L9.14651 1.17405ZM9.07166 2.10006C9.27891 2.7533 9.72242 3.33591 10.363 3.70577L11.113 2.40673C10.809 2.23122 10.5999 1.95692 10.5014 1.64643L9.07166 2.10006ZM10.363 3.70577C10.9458 4.04225 11.6002 4.1496 12.2179 4.05508L11.991 2.57234C11.6981 2.61715 11.39 2.56666 11.113 2.40673L10.363 3.70577ZM14.8326 5.24096C14.5348 4.4593 14.1143 3.73874 13.5951 3.10265L12.4331 4.05111C12.8523 4.56472 13.1911 5.14577 13.4309 5.77508L14.8326 5.24096ZM13.9383 8C13.9383 7.62531 14.09 7.28745 14.3371 7.04205L13.2802 5.97768C12.7611 6.49314 12.4383 7.20958 12.4383 8H13.9383ZM14.3371 8.95796C14.09 8.71255 13.9383 8.37469 13.9383 8H12.4383C12.4383 8.79042 12.7611 9.50686 13.2802 10.0223L14.3371 8.95796ZM13.5954 12.8971C14.1144 12.2611 14.5348 11.5406 14.8326 10.759L13.4309 10.2249C13.1912 10.8541 12.8524 11.4351 12.4333 11.9487L13.5954 12.8971ZM11.113 13.593C11.3901 13.4331 11.6981 13.3826 11.991 13.4274L12.218 11.9447C11.6003 11.8501 10.9459 11.9575 10.363 12.294L11.113 13.593ZM10.5014 14.3534C10.5999 14.0429 10.809 13.7686 11.113 13.593L10.363 12.294C9.72235 12.6639 9.27881 13.2466 9.07159 13.8999L10.5014 14.3534ZM7.58834 15.75C8.18019 15.75 8.75744 15.6835 9.31267 15.5573L8.98019 14.0946C8.5333 14.1962 8.06756 14.25 7.58834 14.25V15.75ZM5.86321 15.5571C6.41869 15.6835 6.9962 15.75 7.58834 15.75V14.25C7.10889 14.25 6.64293 14.1962 6.19584 14.0945L5.86321 15.5571ZM4.06304 13.593C4.36706 13.7685 4.57618 14.0429 4.67468 14.3534L6.10447 13.8998C5.89723 13.2465 5.4537 12.6639 4.81304 12.294L4.06304 13.593ZM3.18528 13.4274C3.47809 13.3826 3.78609 13.4331 4.06304 13.593L4.81304 12.294C4.23034 11.9576 3.57615 11.8502 2.95855 11.9446L3.18528 13.4274ZM0.34406 10.759C0.641854 11.5405 1.06218 12.261 1.5812 12.897L2.74334 11.9486C2.32426 11.435 1.9855 10.8541 1.74574 10.2249L0.34406 10.759ZM1.23834 8C1.23834 8.37469 1.08668 8.71255 0.839555 8.95795L1.8965 10.0223C2.41557 9.50686 2.73834 8.79042 2.73834 8H1.23834ZM0.839555 7.04205C1.08668 7.28745 1.23834 7.62531 1.23834 8H2.73834C2.73834 7.20958 2.41557 6.49314 1.8965 5.97768L0.839555 7.04205ZM1.58142 3.10277C1.0623 3.73883 0.641896 4.45936 0.344059 5.24097L1.74574 5.77508C1.98553 5.14581 2.32435 4.5648 2.74351 4.05121L1.58142 3.10277ZM4.06304 2.40673C3.78611 2.56662 3.47814 2.61713 3.18535 2.57237L2.95869 4.05515C3.57626 4.14955 4.23038 4.04217 4.81304 3.70577L4.06304 2.40673ZM4.67465 1.64648C4.57613 1.95695 4.36703 2.23122 4.06304 2.40673L4.81304 3.70577C5.45362 3.33593 5.89712 2.75336 6.10439 2.10016L4.67465 1.64648ZM7.58834 0.25C6.99617 0.25 6.41863 0.316552 5.86312 0.442889L6.19577 1.90554C6.64288 1.80385 7.10886 1.75 7.58834 1.75V0.25ZM9.31276 0.44271C8.7575 0.316489 8.18022 0.25 7.58834 0.25V1.75C8.06758 1.75 8.53335 1.8038 8.98026 1.90539L9.31276 0.44271ZM6.10439 2.10016C6.13311 2.00967 6.16927 1.94829 6.19659 1.91605C6.22012 1.88828 6.22051 1.89991 6.19577 1.90554L5.86312 0.442889C5.15055 0.60495 4.80925 1.22228 4.67465 1.64648L6.10439 2.10016ZM1.8965 5.97768C1.81978 5.9015 1.77557 5.82888 1.75781 5.78098C1.74273 5.7403 1.75605 5.74803 1.74574 5.77508L0.344059 5.24097C0.0494186 6.01419 0.493014 6.69792 0.839555 7.04205L1.8965 5.97768ZM2.95855 11.9446C2.86488 11.959 2.79394 11.9538 2.75291 11.9436C2.71753 11.9348 2.72751 11.9292 2.74334 11.9486L1.5812 12.897C2.04233 13.462 2.7454 13.4947 3.18528 13.4274L2.95855 11.9446ZM6.19584 14.0945C6.22059 14.1001 6.22019 14.1117 6.19666 14.084C6.16934 14.0517 6.13318 13.9903 6.10447 13.8998L4.67468 14.3534C4.80926 14.7776 5.15056 15.3951 5.86321 15.5571L6.19584 14.0945ZM9.07159 13.8999C9.04287 13.9904 9.0067 14.0519 8.97938 14.0841C8.95584 14.1119 8.95544 14.1002 8.98019 14.0946L9.31267 15.5573C10.0255 15.3953 10.3668 14.7777 10.5014 14.3534L9.07159 13.8999ZM12.4333 11.9487C12.4491 11.9293 12.4591 11.9349 12.4237 11.9437C12.3826 11.9538 12.3117 11.959 12.218 11.9447L11.991 13.4274C12.4309 13.4948 13.1342 13.4622 13.5954 12.8971L12.4333 11.9487ZM13.4309 5.77508C13.4206 5.74803 13.4339 5.7403 13.4189 5.78098C13.4011 5.82888 13.3569 5.90149 13.2802 5.97768L14.3371 7.04205C14.6837 6.69792 15.1273 6.01419 14.8326 5.24096L13.4309 5.77508ZM1.74574 10.2249C1.75605 10.252 1.74273 10.2597 1.75782 10.219C1.77557 10.1711 1.81978 10.0985 1.8965 10.0223L0.839555 8.95795C0.493014 9.30208 0.0494189 9.98581 0.34406 10.759L1.74574 10.2249ZM12.2179 4.05508C12.3115 4.04074 12.3825 4.04594 12.4235 4.05613C12.4589 4.06491 12.4489 4.07051 12.4331 4.05111L13.5951 3.10265C13.134 2.5376 12.4308 2.50502 11.991 2.57234L12.2179 4.05508ZM2.74351 4.05121C2.72768 4.07061 2.71771 4.06502 2.75309 4.05623C2.7941 4.04603 2.86504 4.04083 2.95869 4.05515L3.18535 2.57237C2.74551 2.50514 2.04252 2.5378 1.58142 3.10277L2.74351 4.05121ZM13.2802 10.0223C13.3569 10.0985 13.4011 10.1711 13.4189 10.219C13.4339 10.2597 13.4206 10.252 13.4309 10.2249L14.8326 10.759C15.1273 9.98581 14.6837 9.30208 14.3371 8.95796L13.2802 10.0223ZM10.5014 1.64643C10.3668 1.22217 10.0255 0.604721 9.31276 0.44271L8.98026 1.90539C8.95552 1.89977 8.95591 1.88813 8.97945 1.91591C9.00677 1.94816 9.04294 2.00955 9.07166 2.10006L10.5014 1.64643Z" fill="#696969"/>
  </g>
</svg>