<svg xmlns="http://www.w3.org/2000/svg" width="17" height="18" viewBox="0 0 17 18" fill="none">
  <circle cx="2.4" cy="2.4" r="2.4" transform="matrix(-1 0 0 1 10.9539 6.6001)" stroke="#9B9B9B" stroke-width="1.5"/>
  <path d="M12.1535 3.35L12.5285 2.70048V2.70048L12.1535 3.35ZM12.1535 14.6493L11.7785 13.9998L12.1535 14.6493ZM4.95349 14.6493L4.57849 15.2988H4.57849L4.95349 14.6493ZM4.95349 3.35L4.57849 2.70048H4.57849L4.95349 3.35ZM6.06392 1.9211L6.78594 2.12403L6.06392 1.9211ZM1.37746 7.23255L0.869932 7.78474L1.37746 7.23255ZM1.04292 6.23938L0.338988 5.98057L1.04292 6.23938ZM3.31291 14.3685L3.45093 15.1057L3.31291 14.3685ZM2.40335 14.1161L1.82702 14.5961L2.40335 14.1161ZM6.06406 16.0787L6.78612 15.8759L6.06406 16.0787ZM11.0429 16.0788L10.3208 15.8761L11.0429 16.0788ZM10.4127 16.7829L10.2391 16.0533L10.4127 16.7829ZM14.7042 14.1163L15.2805 14.5962L14.7042 14.1163ZM13.7945 14.3686L13.6563 15.1058L13.7945 14.3686ZM16.0647 6.23938L16.7687 5.98057L16.0647 6.23938ZM15.7302 7.23255L16.2377 7.78475L15.7302 7.23255ZM1.37746 10.7674L0.869932 10.2153L1.37746 10.7674ZM14.7037 3.88309L14.1274 4.3631L14.7037 3.88309ZM16.0647 11.7606L16.7687 12.0194L16.0647 11.7606ZM11.043 1.921L10.321 2.1239L11.043 1.921ZM10.4129 1.21713L10.2392 1.94675L10.4129 1.21713ZM10.321 2.1239C10.5353 2.88663 11.0374 3.57165 11.7785 3.99952L12.5285 2.70048C12.14 2.47616 11.8778 2.11917 11.7651 1.7181L10.321 2.1239ZM11.7785 3.99952C12.4556 4.39046 13.2195 4.50143 13.9322 4.36797L13.6561 2.8936C13.2821 2.96364 12.8839 2.9057 12.5285 2.70048L11.7785 3.99952ZM16.7687 5.98057C16.4204 5.03325 15.9132 4.16337 15.2799 3.40308L14.1274 4.3631C14.6527 4.99377 15.0727 5.71447 15.3608 6.49819L16.7687 5.98057ZM15.7038 9C15.7038 8.51922 15.9085 8.08734 16.2377 7.78475L15.2227 6.68036C14.5974 7.25507 14.2038 8.08213 14.2038 9H15.7038ZM16.2377 10.2153C15.9085 9.91266 15.7038 9.48078 15.7038 9H14.2038C14.2038 9.91787 14.5974 10.7449 15.2227 11.3196L16.2377 10.2153ZM15.2805 14.5962C15.9135 13.8361 16.4205 12.9665 16.7687 12.0194L15.3608 11.5018C15.0728 12.2853 14.653 13.0058 14.1279 13.6363L15.2805 14.5962ZM12.5285 15.2988C12.884 15.0936 13.2822 15.0357 13.6563 15.1058L13.9326 13.6314C13.2198 13.4979 12.4558 13.6088 11.7785 13.9998L12.5285 15.2988ZM11.765 16.2816C11.8776 15.8804 12.1398 15.5232 12.5285 15.2988L11.7785 13.9998C11.0372 14.4278 10.5351 15.1131 10.3208 15.8761L11.765 16.2816ZM8.55383 17.75C9.25267 17.75 9.93333 17.6679 10.5863 17.5125L10.2391 16.0533C9.69902 16.1818 9.13488 16.25 8.55383 16.25V17.75ZM6.52049 17.5123C7.17372 17.6678 7.85467 17.75 8.55383 17.75V16.25C7.97252 16.25 7.40814 16.1817 6.86787 16.0531L6.52049 17.5123ZM4.57849 15.2988C4.96712 15.5232 5.22932 15.8803 5.34199 16.2815L6.78612 15.8759C6.57187 15.113 6.06974 14.4278 5.32849 13.9998L4.57849 15.2988ZM3.45093 15.1057C3.82495 15.0357 4.22306 15.0936 4.57849 15.2988L5.32849 13.9998C4.6514 13.6089 3.88756 13.4979 3.17489 13.6313L3.45093 15.1057ZM0.338988 12.0194C0.687154 12.9664 1.19406 13.836 1.82702 14.5961L2.97968 13.6362C2.45464 13.0057 2.03488 12.2852 1.74685 11.5018L0.338988 12.0194ZM1.40383 9C1.40383 9.48078 1.19916 9.91266 0.869932 10.2153L1.88498 11.3196C2.51028 10.7449 2.90383 9.91787 2.90383 9H1.40383ZM0.869932 7.78474C1.19916 8.08734 1.40383 8.51922 1.40383 9H2.90383C2.90383 8.08213 2.51028 7.25507 1.88498 6.68036L0.869932 7.78474ZM1.82759 3.40323C1.19436 4.16349 0.687259 5.03331 0.338988 5.98057L1.74685 6.49819C2.03497 5.71453 2.45489 4.99387 2.98016 4.36322L1.82759 3.40323ZM4.57849 2.70048C4.22313 2.90565 3.8251 2.96361 3.45115 2.89365L3.17531 4.36807C3.88786 4.50137 4.65153 4.39036 5.32849 3.99952L4.57849 2.70048ZM5.3419 1.71817C5.22918 2.11921 4.96701 2.47617 4.57849 2.70048L5.32849 3.99952C6.06953 3.57168 6.57158 2.88671 6.78594 2.12403L5.3419 1.71817ZM8.55383 0.25C7.85459 0.25 7.17357 0.332169 6.52027 0.487711L6.86769 1.94692C7.40801 1.81828 7.97246 1.75 8.55383 1.75V0.25ZM10.5865 0.487503C9.93348 0.332096 9.25275 0.25 8.55383 0.25V1.75C9.13494 1.75 9.69914 1.81822 10.2392 1.94675L10.5865 0.487503ZM6.78594 2.12403C6.80871 2.04301 6.84087 1.98717 6.86529 1.95799C6.88628 1.93291 6.88786 1.94212 6.86769 1.94692L6.52027 0.487711C5.81604 0.655381 5.46962 1.26373 5.3419 1.71817L6.78594 2.12403ZM1.88498 6.68036C1.81441 6.61549 1.77366 6.55036 1.75736 6.50737C1.74358 6.47105 1.75499 6.47605 1.74685 6.49819L0.338988 5.98057C0.0561199 6.74993 0.48704 7.43282 0.869932 7.78474L1.88498 6.68036ZM3.17489 13.6313C3.09234 13.6468 3.02813 13.6427 2.99114 13.6338C2.9593 13.6261 2.96661 13.6205 2.97968 13.6362L1.82702 14.5961C2.28945 15.1514 2.98696 15.1926 3.45093 15.1057L3.17489 13.6313ZM6.86787 16.0531C6.88804 16.0579 6.88646 16.0671 6.86547 16.042C6.84105 16.0128 6.80888 15.957 6.78612 15.8759L5.34199 16.2815C5.46965 16.7361 5.81606 17.3446 6.52049 17.5123L6.86787 16.0531ZM10.3208 15.8761C10.2981 15.9571 10.2659 16.013 10.2415 16.0422C10.2205 16.0673 10.2189 16.0581 10.2391 16.0533L10.5863 17.5125C11.2909 17.3449 11.6373 16.7362 11.765 16.2816L10.3208 15.8761ZM14.1279 13.6363C14.1409 13.6206 14.1482 13.6262 14.1164 13.6339C14.0794 13.6429 14.0152 13.6469 13.9326 13.6314L13.6563 15.1058C14.1203 15.1927 14.818 15.1516 15.2805 14.5962L14.1279 13.6363ZM15.3608 6.49819C15.3527 6.47605 15.3641 6.47105 15.3503 6.50737C15.334 6.55036 15.2932 6.61549 15.2227 6.68036L16.2377 7.78475C16.6206 7.43282 17.0515 6.74993 16.7687 5.98057L15.3608 6.49819ZM1.74685 11.5018C1.75499 11.524 1.74358 11.5289 1.75736 11.4926C1.77366 11.4496 1.81441 11.3845 1.88498 11.3196L0.869932 10.2153C0.487039 10.5672 0.0561199 11.2501 0.338988 12.0194L1.74685 11.5018ZM13.9322 4.36797C14.0147 4.35251 14.0789 4.35657 14.1159 4.36552C14.1478 4.37322 14.1405 4.3788 14.1274 4.3631L15.2799 3.40308C14.8175 2.84788 14.12 2.80672 13.6561 2.8936L13.9322 4.36797ZM2.98016 4.36322C2.96709 4.37892 2.95979 4.37335 2.99161 4.36564C3.02859 4.3567 3.09278 4.35263 3.17531 4.36807L3.45115 2.89365C2.98727 2.80686 2.28996 2.84811 1.82759 3.40323L2.98016 4.36322ZM15.2227 11.3196C15.2932 11.3845 15.334 11.4496 15.3503 11.4926C15.3641 11.5289 15.3527 11.524 15.3608 11.5018L16.7687 12.0194C17.0515 11.2501 16.6206 10.5672 16.2377 10.2153L15.2227 11.3196ZM11.7651 1.7181C11.6373 1.26359 11.2909 0.655128 10.5865 0.487503L10.2392 1.94675C10.2191 1.94195 10.2207 1.93274 10.2416 1.95782C10.2661 1.98701 10.2982 2.04286 10.321 2.1239L11.7651 1.7181Z" fill="#9B9B9B"/>
</svg>